<?xml version="1.0" standalone="no"?>
<!DOCTYPE svg PUBLIC "-//W3C//DTD SVG 20010904//EN"
 "http://www.w3.org/TR/2001/REC-SVG-20010904/DTD/svg10.dtd">
<svg version="1.0" xmlns="http://www.w3.org/2000/svg"
 width="512.000000pt" height="512.000000pt" viewBox="0 0 512.000000 512.000000"
 preserveAspectRatio="xMidYMid meet">
<metadata>
Created by potrace 1.14, written by Peter Selinger 2001-2017
</metadata>
<g transform="translate(0.000000,512.000000) scale(0.100000,-0.100000)"
fill="#000000" stroke="none">
<path d="M1825 4206 c-244 -35 -459 -118 -668 -259 -436 -296 -767 -828 -851
-1369 -29 -188 -13 -401 39 -529 42 -104 119 -198 205 -251 113 -70 193 -89
360 -84 69 3 141 7 160 11 167 31 312 81 535 185 59 27 108 50 110 50 5 0
-102 -390 -138 -500 -82 -258 -172 -367 -337 -407 -53 -12 -331 -12 -420 2
-19 2 -57 7 -84 10 -27 3 -53 7 -59 8 -11 2 -182 -261 -175 -269 11 -10 151
-19 293 -18 172 1 250 16 382 75 24 11 45 19 47 19 3 0 33 16 68 37 174 101
364 280 487 458 102 146 164 299 244 601 25 93 48 180 51 194 4 22 112 455
137 553 9 36 11 37 54 37 35 0 60 10 118 45 41 25 78 45 82 45 23 0 -28 -246
-124 -600 -36 -134 -88 -342 -95 -385 -3 -16 -10 -52 -15 -80 -16 -84 -8 -188
20 -241 51 -100 105 -109 242 -41 110 55 350 203 527 326 72 50 130 88 130 85
0 -3 -21 -103 -46 -222 -25 -119 -48 -226 -50 -237 -2 -11 -7 -33 -10 -50 -4
-26 -37 -170 -48 -215 -25 -97 -63 -215 -83 -259 -100 -211 -338 -257 -812
-156 -40 8 -76 17 -80 19 -6 4 -156 -240 -169 -274 -7 -19 176 -34 418 -35
171 0 205 3 279 23 159 42 259 107 429 280 138 141 195 215 239 312 33 70 79
200 89 245 6 29 10 47 39 175 15 63 29 126 31 140 4 21 13 61 29 130 2 8 11
49 20 90 9 41 18 82 20 90 2 8 16 67 30 130 75 330 193 789 264 1025 16 55 28
101 27 103 -2 1 -81 -37 -177 -85 l-173 -88 -118 -470 c-64 -258 -122 -486
-128 -506 -9 -33 -25 -45 -193 -148 -198 -120 -257 -149 -303 -152 -77 -6
-109 36 -109 141 1 41 3 91 7 110 9 56 58 267 84 370 102 392 134 518 138 540
2 14 7 32 10 40 3 8 8 26 10 40 3 14 11 54 19 90 21 95 -1 125 -72 101 -52
-19 -249 -119 -353 -180 -15 -9 -76 -44 -135 -78 l-109 -61 -299 3 -300 3
-127 -65 c-100 -50 -128 -68 -128 -84 0 -17 5 -19 38 -15 20 3 96 7 167 10 72
3 191 8 266 12 l137 5 -75 -298 -74 -298 -42 -38 c-99 -88 -257 -176 -397
-218 -77 -24 -223 -32 -299 -17 -57 11 -155 65 -201 110 -71 70 -140 192 -155
276 -2 15 -9 50 -14 77 -6 28 -9 120 -6 205 4 159 5 168 31 305 96 497 399
945 758 1121 118 57 188 75 311 80 269 10 451 -132 501 -391 27 -143 19 -133
67 -79 23 26 49 56 58 66 9 10 44 49 77 86 33 37 76 85 95 107 l35 39 -24 55
c-60 134 -147 207 -295 247 -82 21 -321 27 -444 10z"/>
<path d="M4725 4033 c-121 -25 -232 -92 -402 -242 -112 -99 -200 -202 -236
-274 -41 -85 -84 -223 -152 -492 -35 -137 -66 -263 -69 -280 -6 -35 -7 -41
-35 -155 -11 -47 -29 -125 -40 -175 -19 -83 -67 -290 -76 -325 -2 -8 -10 -46
-19 -85 -8 -38 -26 -117 -40 -175 -14 -58 -27 -117 -30 -132 -10 -46 -15 -70
-35 -148 -37 -144 -11 -283 66 -350 42 -38 82 -39 146 -5 56 30 242 157 501
343 l186 132 0 46 c0 40 -2 44 -17 35 -10 -6 -81 -48 -158 -96 -188 -114 -293
-166 -329 -163 -82 8 -94 122 -40 378 19 90 41 188 49 219 8 31 16 70 19 86 3
17 20 86 37 155 17 69 32 132 34 140 66 299 235 928 295 1105 49 142 76 186
134 220 54 32 131 36 249 16 42 -8 79 -12 80 -10 2 2 41 50 86 107 45 56 80
106 77 111 -6 9 -90 22 -171 26 -22 1 -71 -4 -110 -12z"/>
</g>
</svg>
